<?xml version="1.0" encoding="iso-8859-1"?>
<!-- Uploaded to: SVG Repo, www.svgrepo.com, Generator: SVG Repo Mixer Tools -->
<svg version="1.1" id="Layer_1" xmlns="http://www.w3.org/2000/svg" xmlns:xlink="http://www.w3.org/1999/xlink"
    viewBox="0 0 490 490" xml:space="preserve">
    <g>
        <g id="XMLID_51_">
            <g>
                <path style="fill:#546A79;" d="M245,220c13.799,0,25,11.201,25,25c0,13.799-11.201,25-25,25c-13.799,0-25-11.201-25-25
				S231.201,220,245,220z" />
                <path style="fill:#AFB6BB;" d="M345,225v40h-32.9c-1.397,4.6-3.203,9.102-5.498,13.301l23.203,23.301l-28.203,28.301
				l-23.301-23.301c-4.199,2.295-8.701,4.102-13.301,5.498V345h-40v-32.9c-4.707-1.397-9.102-3.301-13.301-5.498l-23.301,23.203
				l-28.301-28.203l23.301-23.301c-2.305-4.199-4.102-8.701-5.498-13.301H145v-40h32.9c1.396-4.6,3.193-9.102,5.498-13.301
				l-23.301-23.301l28.301-28.301l23.301,23.301c4.199-2.305,8.701-4.102,13.301-5.498V145h40v32.9
				c4.6,1.396,9.102,3.193,13.301,5.498l23.301-23.301l28.301,28.301l-23.301,23.301c2.295,4.199,4.102,8.701,5.498,13.301L345,225
				L345,225z M270,245c0-13.799-11.201-25-25-25c-13.799,0-25,11.201-25,25c0,13.799,11.201,25,25,25
				C258.799,270,270,258.799,270,245z" />
                <path style="fill:#FFD248;" d="M180.801,425H85c-5.498,0-10-4.502-10-10V310c-35.898,0-65-29.102-65-65s29.102-65,65-65V75
				c0-5.498,4.502-10,10-10h95.801C185.703,33.906,212.5,10,245,10s59.297,23.906,64.199,55H405c5.498,0,10,4.502,10,10v105
				c35.898,0,65,29.102,65,65s-29.102,65-65,65v105c0,5.498-4.502,10-10,10h-95.801c-4.902,31.103-31.699,55-64.199,55
				S185.703,456.103,180.801,425z M345,265v-40h-32.9c-1.397-4.6-3.203-9.102-5.498-13.301l23.301-23.301l-28.301-28.301
				l-23.301,23.301c-4.199-2.305-8.701-4.102-13.301-5.498V145h-40v32.9c-4.6,1.396-9.102,3.193-13.301,5.498l-23.301-23.301
				l-28.301,28.301l23.301,23.301c-2.305,4.199-4.102,8.701-5.498,13.301H145v40h32.9c1.396,4.6,3.193,9.102,5.498,13.301
				l-23.301,23.301l28.301,28.203l23.301-23.203c4.199,2.197,8.594,4.102,13.301,5.498V345h40v-32.9
				c4.6-1.397,9.102-3.203,13.301-5.498l23.301,23.301l28.203-28.301l-23.203-23.301c2.295-4.199,4.102-8.701,5.498-13.301L345,265
				L345,265z" />
            </g>
            <g>
                <path style="fill:#231F20;"
                    d="M425,170.664V75c0-11.028-8.972-20-20-20h-87.76c-3.951-14.169-12.018-26.984-23.24-36.715
				C280.402,6.494,263.001,0,245,0s-35.402,6.494-49,18.285c-11.222,9.73-19.29,22.546-23.241,36.715H85c-11.028,0-20,8.972-20,20
				v95.664C28.355,175.567,0,207.035,0,245s28.355,69.433,65,74.336V415c0,11.028,8.972,20,20,20h87.759
				c3.951,14.172,12.018,26.988,23.242,36.72c13.596,11.788,30.998,18.28,49,18.28s35.403-6.492,49-18.28
				c11.224-9.731,19.29-22.548,23.241-36.72H405c11.028,0,20-8.972,20-20v-95.664c36.645-4.903,65-36.371,65-74.336
				S461.645,175.567,425,170.664z M415,300c-5.522,0-10,4.478-10,10v105h-95.801c-4.922,0-9.111,3.581-9.878,8.443
				C295.069,450.42,272.224,470,245,470s-50.069-19.58-54.321-46.557c-0.766-4.862-4.956-8.443-9.878-8.443H85V310
				c0-5.522-4.477-10-10-10c-30.327,0-55-24.673-55-55s24.673-55,55-55c5.523,0,10-4.477,10-10V75h95.801
				c4.921,0,9.111-3.581,9.878-8.442C194.932,39.58,217.777,20,245,20s50.068,19.58,54.321,46.558
				c0.767,4.861,4.956,8.442,9.878,8.442H405v105c0,5.523,4.478,10,10,10c30.327,0,55,24.673,55,55S445.327,300,415,300z" />
                <path style="fill:#231F20;" d="M365,375h-90v20h100c5.522,0,10-4.478,10-10V270h-20V375z" />
                <path style="fill:#231F20;" d="M215,95H115c-5.523,0-10,4.478-10,10v105h20v-95h90V95z" />
                <path style="fill:#231F20;"
                    d="M275,319.18c0.413-0.166,0.824-0.334,1.231-0.506l18.299,18.3
				c1.876,1.875,4.419,2.929,7.071,2.929c0.003,0,0.006,0,0.009,0c2.655-0.002,5.2-1.061,7.074-2.941l28.203-28.301
				c3.889-3.901,3.89-10.212,0.003-14.115l-18.223-18.299c0.173-0.412,0.344-0.828,0.512-1.246H345c5.522,0,10-4.478,10-10v-40
				c0-5.523-4.478-10-10-10h-25.82c-0.166-0.413-0.334-0.824-0.506-1.231l18.3-18.299c1.875-1.876,2.929-4.419,2.929-7.071
				s-1.054-5.195-2.929-7.071l-28.301-28.301c-1.876-1.875-4.419-2.929-7.071-2.929s-5.195,1.054-7.071,2.929l-18.297,18.297
				c-0.407-0.171-0.819-0.34-1.233-0.506V145c0-5.523-4.478-10-10-10h-40c-5.523,0-10,4.477-10,10v25.817
				c-0.414,0.166-0.826,0.335-1.233,0.506l-18.297-18.297c-1.876-1.875-4.419-2.929-7.071-2.929s-5.196,1.054-7.071,2.929
				l-28.301,28.301c-1.875,1.876-2.929,4.419-2.929,7.071s1.054,5.195,2.929,7.071l18.297,18.297
				c-0.171,0.407-0.34,0.819-0.506,1.233H145c-5.523,0-10,4.477-10,10v40c0,5.522,4.477,10,10,10h25.817
				c0.166,0.414,0.335,0.826,0.506,1.233l-18.297,18.297c-1.878,1.878-2.931,4.425-2.929,7.08s1.061,5.2,2.941,7.074l28.301,28.203
				c3.9,3.888,10.211,3.889,14.115,0.003l18.315-18.238c0.411,0.176,0.821,0.347,1.231,0.514V345c0,5.522,4.477,10,10,10h40
				c5.522,0,10-4.478,10-10V319.18z M262.095,302.531c-4.214,1.279-7.095,5.164-7.095,9.568V335h-20v-22.9
				c0-4.428-2.911-8.328-7.156-9.587c-3.714-1.102-7.479-2.663-11.509-4.771c-3.867-2.022-8.6-1.305-11.692,1.774l-16.242,16.174
				l-14.149-14.101l16.218-16.217c3.144-3.144,3.834-7.985,1.695-11.883c-1.836-3.345-3.416-7.179-4.696-11.395
				c-1.279-4.214-5.165-7.095-9.569-7.095H155v-20h22.9c4.404,0,8.29-2.881,9.569-7.095c1.28-4.216,2.86-8.05,4.696-11.395
				c2.139-3.897,1.448-8.739-1.695-11.883l-16.23-16.229l14.159-14.158l16.23,16.229c3.145,3.144,7.985,3.836,11.883,1.695
				c3.345-1.836,7.179-3.416,11.395-4.696c4.214-1.279,7.095-5.164,7.095-9.568V155h20v22.9c0,4.404,2.881,8.289,7.095,9.568
				c4.216,1.28,8.05,2.86,11.395,4.696c3.897,2.139,8.738,1.448,11.883-1.695l16.229-16.229l14.158,14.158l-16.229,16.229
				c-3.139,3.139-3.833,7.972-1.704,11.867c1.852,3.388,3.435,7.227,4.705,11.41c1.279,4.214,5.164,7.095,9.568,7.095H335v20h-22.9
				c-4.404,0-8.289,2.881-9.568,7.095c-1.271,4.184-2.854,8.022-4.705,11.41c-2.125,3.889-1.438,8.712,1.689,11.852l16.174,16.241
				l-14.101,14.149l-16.217-16.218c-3.139-3.14-7.972-3.829-11.867-1.704C270.117,299.678,266.278,301.261,262.095,302.531z" />
                <path style="fill:#231F20;" d="M245,210c-19.299,0-35,15.701-35,35s15.701,35,35,35s35-15.701,35-35S264.299,210,245,210z
				 M245,260c-8.271,0-15-6.729-15-15s6.729-15,15-15s15,6.729,15,15S253.271,260,245,260z" />
                <rect x="105" y="375" style="fill:#231F20;" width="20" height="20" />
                <rect x="365" y="95" style="fill:#231F20;" width="20" height="20" />
            </g>
        </g>
    </g>
</svg>
